<svg viewBox="0 0 79 24" fill="none" xmlns="http://www.w3.org/2000/svg">
<path fill="#BD1339" d="M11.1878 2.66884C11.2262 2.72834 11.2775 2.77934 11.2818 2.83884C11.3373 3.01308 11.4997 3.11933 11.5211 3.29358C11.5297 3.35308 11.6066 3.37858 11.645 3.40407C11.6878 3.45932 11.6579 3.52307 11.7433 3.60382C11.7818 3.62932 11.7519 3.69307 11.7604 3.75257C11.7989 3.77807 11.8416 3.80356 11.8801 3.82906C12.2434 4.3943 12.2776 5.04878 11.8587 5.65652C11.7904 5.72452 11.7262 5.81801 11.7006 5.91151C11.6664 5.94551 11.5938 5.97951 11.5596 6.01351C11.5681 6.07301 11.6066 6.09851 11.6493 6.15376C11.4655 6.2005 11.4442 6.3535 11.3074 6.4555C11.269 6.4555 11.1963 6.464 11.1578 6.46825C11.0553 6.57025 10.9484 6.60849 10.8416 6.67649C10.8074 6.71049 10.8159 6.79974 10.8202 6.82949C10.645 6.96549 10.3928 7.05048 10.1279 7.04198C10.0937 7.04198 10.0638 7.13973 10.0296 7.13973C9.84153 7.15673 9.6193 7.14823 9.43125 7.16523C9.35432 7.14398 9.31159 7.08873 9.23039 7.06323C9.15773 7.07173 9.08081 7.07598 9.00388 7.05473C8.88421 6.97399 8.73036 6.96124 8.61069 6.91024C8.53377 6.88899 8.39273 6.96124 8.31153 6.91024C8.05938 6.69349 7.81151 6.47675 7.67475 6.2515C7.585 6.11126 7.42687 6.06451 7.37559 5.92001C7.36704 5.86051 7.39695 5.76702 7.32003 5.74577C7.16617 5.69902 7.23028 5.60552 7.22173 5.51627C7.17472 5.43127 7.16617 5.37178 7.08497 5.29103C7.03796 5.20603 7.09779 5.07853 7.05078 4.96379C7.05078 4.93404 7.0807 4.90004 7.07642 4.87029C7.02086 4.69604 7.11061 4.50905 7.09352 4.3603C7.08497 4.27105 7.10634 4.14781 7.13626 4.05856C7.23028 3.87156 7.31575 3.65057 7.48243 3.45507C7.48243 3.42532 7.47388 3.36583 7.46961 3.33608C7.5038 3.30208 7.54226 3.29783 7.57218 3.26383C7.63201 3.11083 7.69184 2.98333 7.79014 2.85584C7.92262 2.69434 8.13204 2.5541 8.30299 2.38835C8.40556 2.2906 8.54659 2.2141 8.64061 2.05686C8.6748 2.02286 8.79447 2.07386 8.82866 2.03986C8.93122 1.94211 9.08081 1.95486 9.18765 1.88686C9.29449 1.81886 9.27312 1.96761 9.37997 1.92936C9.45262 1.92086 9.48681 1.89111 9.55946 1.85286C9.66631 1.81461 9.79025 1.89111 9.90564 1.90811C10.0168 1.89961 10.1321 1.91661 10.2518 1.99736C10.4142 2.10361 10.786 2.06536 10.8459 2.2736C10.9356 2.41385 11.098 2.5201 11.1878 2.66034V2.66884Z" />
<path fill="#0087CB" d="M17.4791 5.01487C17.4791 4.92138 17.4791 4.86613 17.4407 4.76838C17.4321 4.67488 17.5048 4.57289 17.4706 4.44539C17.4492 4.41139 17.4022 4.37314 17.4065 4.34339C17.4706 4.1479 17.4748 3.9694 17.4578 3.76116C17.4407 3.69741 17.4193 3.66341 17.3979 3.62941C17.4022 3.59966 17.415 3.54441 17.4236 3.48491C17.4278 3.30642 17.3723 3.17467 17.3167 3.01317C17.2996 2.94943 17.2526 2.91118 17.2441 2.81768C17.2227 2.78368 17.1757 2.74118 17.18 2.71143C17.227 2.45219 17.103 2.24819 17.0646 2.0017C17.0047 1.72121 16.7398 1.54271 16.6543 1.25797C16.6586 1.22822 16.7483 1.24097 16.774 1.24522C16.9834 1.44071 17.2184 1.67021 17.274 1.9507C17.3124 2.04845 17.2954 2.13345 17.3381 2.20144C17.5176 2.41819 17.5475 2.69443 17.5817 2.97068C17.5774 3.00042 17.633 2.98343 17.6543 3.01742C17.6501 3.04717 17.6373 3.10242 17.6586 3.13642C17.7954 3.28517 17.7099 3.44666 17.7398 3.59966C17.7569 3.66341 17.774 3.69741 17.7954 3.73141C17.7911 3.76116 17.7227 3.83765 17.7142 3.86315C17.8253 4.00765 17.8723 4.19464 17.8424 4.36889C17.9706 4.42839 17.9108 4.59413 17.9407 4.71738C17.9621 4.75138 17.9877 4.75563 18.0133 4.76413C18.0475 4.71313 18.086 4.66213 18.0988 4.60263C18.1159 4.36889 18.1245 4.16065 18.0817 3.9439C18.0475 3.84615 18.0347 3.75266 18.1031 3.68041C18.0518 3.66766 18.0347 3.60391 18.0133 3.56991C17.9193 3.19167 17.8809 2.76668 17.7655 2.37994C17.7655 2.37994 17.7954 2.35869 17.8039 2.32894C17.7655 1.98895 17.5048 1.67021 17.3808 1.33022C17.3595 1.27072 17.2612 1.19422 17.2142 1.13047C17.2142 1.13047 17.2142 1.10072 17.2227 1.07097C17.3552 1.08797 17.4578 1.21547 17.5261 1.31322C17.6672 1.50871 17.8253 1.72546 17.868 1.94645C17.9407 2.14195 18.0518 2.34594 18.0945 2.53719C18.1245 2.66468 18.2142 2.74543 18.2783 2.85168C18.3125 2.94943 18.2954 3.03442 18.304 3.12792C18.3424 3.34892 18.4065 3.55716 18.4493 3.77816C18.5005 3.93965 18.5262 4.1224 18.4706 4.25839C18.398 4.50914 18.5647 4.78538 18.633 5.01062C18.6715 5.10837 18.6245 5.21887 18.5817 5.29962C18.5775 5.32937 18.6245 5.36762 18.6159 5.39736C18.5689 5.50786 18.6074 5.60561 18.586 5.72036C18.5561 5.74161 18.6245 5.8181 18.586 5.8691C18.5561 5.8946 18.5305 5.8861 18.4963 5.9116C18.4535 5.99235 18.492 6.0901 18.4749 6.1751C18.3894 6.33659 18.4322 6.55334 18.274 6.66808C18.2142 6.68508 18.2099 6.71483 18.18 6.73608C18.2057 6.74033 18.227 6.77433 18.2484 6.81258C18.2185 6.83383 18.1886 6.82958 18.1586 6.85083C18.1501 6.90608 18.2612 6.97832 18.2826 7.01232C18.2398 7.24182 18.0689 7.44156 18.0732 7.71356C18.0604 7.76881 18.0475 7.85805 18.0347 7.9133C17.9834 8.0493 17.8809 8.14705 17.8296 8.28729C17.821 8.34254 17.7099 8.35104 17.6971 8.40629C17.6287 8.47854 17.633 8.60178 17.586 8.71228C17.5475 8.76328 17.4706 8.74628 17.4065 8.79303C17.3338 8.89503 17.3424 8.98852 17.2954 9.09477C17.2142 9.22652 17.1201 9.37102 17.0432 9.50276C16.9535 9.69401 16.8039 9.8725 16.6415 10.017C16.6158 10.0127 16.556 10.0297 16.5261 10.051C16.4406 10.2125 16.3466 10.3315 16.1671 10.4122C16.1414 10.408 16.103 10.5312 16.0688 10.5525C15.9449 10.6417 15.8765 10.748 15.7269 10.833C15.6713 10.85 15.6414 10.8712 15.5773 10.7692C15.3807 11.1135 15.12 11.3812 14.838 11.6192C14.6884 11.7042 14.5388 11.6957 14.4405 11.7935C14.1157 12.1079 13.6028 12.4437 13.5473 12.4904C13.5216 12.4862 13.4233 12.6307 13.4233 12.6307C13.3208 12.6392 13.3806 12.6477 13.2823 12.6307C13.2823 12.6307 13.278 12.7922 13.1456 12.8177C12.8678 12.8729 12.7951 13.1917 12.7737 13.3234C12.7609 13.3914 12.7182 13.3447 12.684 13.3702C12.6541 13.3957 12.6754 13.4382 12.6413 13.4637C12.5216 13.5359 12.4147 13.6847 12.3165 13.7994C12.2865 13.8249 12.2652 13.7867 12.231 13.8122C12.2011 13.8377 12.0515 14.0204 12.0002 14.1819C11.872 14.4624 11.7352 14.7131 11.56 14.9086C11.5173 14.9554 11.6583 15.1424 11.6497 15.2061C11.6113 15.2954 11.5301 15.3081 11.4916 15.3974C11.4574 15.6141 11.4446 15.8606 11.4061 16.0943C11.342 16.3196 11.4232 16.4811 11.4532 16.6851C11.4873 16.8551 11.4446 17.0761 11.4532 17.2418C11.466 17.3736 11.5557 17.5223 11.5429 17.6498C11.5472 17.8496 11.5002 17.8241 11.5429 17.9898C11.5386 18.0875 11.5044 18.1853 11.5258 18.249C11.5173 18.3808 11.4959 18.4615 11.4916 18.589C11.4617 18.6188 11.4061 18.6825 11.4061 18.7123C11.3848 19.0395 11.1711 19.3243 10.9489 19.541C10.8078 19.6303 10.6882 19.7663 10.53 19.7535C10.4488 19.7493 10.1839 19.915 10.0941 19.9363C9.85905 20 9.67101 20.0042 9.4445 19.9702C9.19662 19.9023 8.99576 19.8428 8.82481 19.5878C8.72224 19.473 8.54702 19.5155 8.48291 19.3413C8.46154 19.2733 8.32051 19.235 8.29487 19.201C8.16238 19.0863 8.094 18.9418 7.9957 18.7973C7.9316 18.623 7.97861 18.504 7.89741 18.3383C7.81621 18.2363 7.78202 18.164 7.70082 18.0578C7.59397 17.9218 7.72646 17.7263 7.64526 17.5903C7.5897 17.5521 7.53414 17.4841 7.5085 17.4161C7.45721 17.2843 7.47004 17.0888 7.38883 16.9486C7.3461 16.7786 7.37174 16.1623 7.40593 15.9966C7.4102 15.9626 7.31618 15.9159 7.32045 15.8819C7.33328 15.6439 7.41875 15.4101 7.39738 15.1636C7.42302 15.0319 7.4102 14.9256 7.52987 14.8109C7.52987 14.8109 7.47431 14.7641 7.47858 14.7301C7.54696 14.5389 7.54696 14.3901 7.58543 14.1904C7.5897 14.1564 7.66235 14.1351 7.66663 14.1054C7.62816 13.9609 7.62389 13.6634 7.64953 13.5317C7.66235 13.4637 7.8333 13.3659 7.87604 13.3064C7.88031 13.2724 7.8504 13.1874 7.9145 13.0727C7.9316 13.0429 7.97434 13.0514 8.00853 13.0259C8.0128 12.9919 7.99143 12.9537 7.99998 12.9197C8.01707 12.8219 8.18375 12.7497 8.19657 12.6817C8.26495 12.4564 8.37607 12.3629 8.49573 12.1802C8.53847 12.0994 8.55556 12.0144 8.62394 11.938C8.65386 11.9167 8.67095 11.938 8.67523 11.9082C8.6795 11.8785 8.66668 11.8147 8.67096 11.7892C8.73933 11.7127 8.82908 11.6447 8.84618 11.5597C8.89319 11.4492 8.93165 11.3727 9.00003 11.2962C9.12397 11.2027 9.24791 11.1135 9.32484 10.9817C9.39322 10.9052 9.47014 10.9222 9.53425 10.85C9.63254 10.7522 9.65819 10.6077 9.73084 10.5057C9.90179 10.306 10.0856 10.1657 10.2693 10.0297C10.4232 9.915 10.6198 9.86825 10.7694 9.78325C10.9232 9.66851 11.0172 9.45176 11.1668 9.36677C11.2566 9.29877 11.3677 9.29027 11.4617 9.22227C11.5557 9.15427 11.6327 9.02252 11.7694 8.99277C12.0771 8.91203 11.8549 8.99702 12.1455 8.88228C12.325 8.77178 12.2523 8.74203 12.4318 8.63578C12.731 8.46154 12.8849 8.35529 12.9105 8.35954C12.9404 8.33829 12.9703 8.31279 12.9832 8.25754C13.0558 8.15555 13.4362 7.8878 13.4917 7.8708C13.5473 7.8538 13.6157 7.92605 13.6798 7.8538C13.714 7.8028 13.6456 7.75606 13.6798 7.70506C13.7781 7.60731 13.8721 7.47556 13.9661 7.40756C13.996 7.38631 14.073 7.42881 14.1285 7.41181C14.1584 7.39056 14.1713 7.33107 14.2012 7.30982C14.2396 7.25882 14.1713 7.18232 14.2054 7.13132C14.2482 7.05057 14.2909 6.96983 14.3465 6.95283C14.4362 6.91458 14.5559 6.85083 14.5431 6.78708C14.5644 6.67233 14.6114 6.56184 14.7311 6.49809C14.7354 6.46834 14.7439 6.43859 14.7482 6.41309C14.8166 6.33659 14.8807 6.29409 14.9491 6.21759C15.0217 6.1156 14.9918 5.9881 15.0345 5.90735C15.1713 5.75861 15.3038 5.63961 15.338 5.43561C15.3294 5.34212 15.2696 5.21037 15.3123 5.12962C15.3465 5.07862 15.4619 5.04462 15.4747 4.98937C15.4961 4.87463 15.4363 4.74288 15.432 4.62388C15.4491 4.53889 15.5431 4.46664 15.5303 4.37739C15.5218 4.13515 15.5346 3.9014 15.5004 3.65491C15.5816 3.64216 15.5944 3.58691 15.603 3.52741C15.5816 3.34467 15.4747 3.17467 15.4277 2.98343C15.4235 2.86443 15.5218 2.76668 15.5175 2.64768C15.5047 2.55419 15.4192 2.44794 15.3209 2.36719C15.2311 2.25669 15.291 2.09095 15.2568 1.9677C15.2311 1.8147 15.1157 1.69571 15.0944 1.51296C15.0858 1.41946 14.9747 1.42796 14.9363 1.33022C14.9063 1.20272 14.8721 1.07947 14.8721 0.926477C14.855 0.862728 14.7738 0.875478 14.7268 0.837229C14.62 0.662983 14.6585 0.314492 14.4277 0.233744C14.449 0.118997 14.3422 0.0934977 14.308 0C14.4448 0 14.573 0.0552486 14.6499 0.225244C14.6713 0.259243 14.7482 0.276243 14.7738 0.284743C14.8422 0.356991 14.838 0.535487 14.9106 0.582235C15.0046 0.662983 15.1457 0.633234 15.1841 0.730982C15.2354 0.892478 15.3594 0.977475 15.4149 1.10922C15.4106 1.13897 15.4235 1.20272 15.4448 1.23672C15.5388 1.31747 15.5517 1.40671 15.6158 1.48321C15.7739 1.66596 15.932 1.85295 15.8594 2.1037C15.8124 2.21419 15.9534 2.18445 15.9961 2.25244C16.103 2.42669 16.0602 2.65618 16.197 2.80493C16.1714 3.09817 16.3124 3.36592 16.4021 3.62516C16.2483 3.8589 16.3338 4.27114 16.4534 4.50914C16.4534 4.50914 16.5389 4.49639 16.5432 4.47089C16.5688 4.33064 16.8295 4.27964 16.7868 4.21164C16.7355 4.05015 16.6543 3.71441 16.6543 3.56566C16.6714 3.32767 16.6799 3.12367 16.6415 2.87718C16.6201 2.84318 16.5987 2.80918 16.5774 2.77518C16.5474 2.64768 16.5133 2.52019 16.5389 2.37994C16.5218 2.31619 16.4748 2.27794 16.4577 2.21419C16.462 2.18445 16.4748 2.1292 16.4791 2.09945C16.5389 2.08245 16.6116 2.1292 16.6628 2.14195C16.7099 2.1802 16.6671 2.26094 16.6885 2.29494C16.774 2.43094 16.8979 2.49044 16.9235 2.64343C16.9193 2.67318 16.9064 2.72843 16.9022 2.75818C16.9235 2.94093 17.0347 3.08542 17.0603 3.23842C17.0731 3.32767 16.9919 3.45941 17.0304 3.56141C17.15 3.79515 17.1543 4.06715 17.1372 4.33064C17.1159 4.44539 17.2612 4.53889 17.2227 4.61538C17.18 4.69613 17.2355 4.70888 17.1928 4.78963C17.1885 4.81938 17.1287 4.83638 17.1244 4.86613C17.2013 5.03187 17.0859 5.28262 17.056 5.42711C17.0518 5.45686 17.1458 5.48661 17.1671 5.38036C17.18 5.31662 17.2868 5.31662 17.3466 5.29962C17.4107 5.25287 17.4578 5.14237 17.4535 5.02337L17.4791 5.01487ZM18.0475 5.58861C18.0518 5.44411 18.1202 5.33787 18.0945 5.18062C18.0433 5.01912 17.9236 5.18062 17.8381 5.18912C17.8851 5.38036 17.8082 5.50786 17.7484 5.67786C17.7142 5.72886 17.6843 5.87335 17.7697 5.8606C17.9022 5.89035 18.0433 5.76286 18.0475 5.58861ZM17.821 6.37484C17.8552 6.32809 17.8381 6.23459 17.7911 6.19634C17.7185 6.1496 17.6244 6.22184 17.5817 6.29834C17.539 6.37909 17.5731 6.50659 17.6843 6.49809C17.7099 6.50234 17.7868 6.42584 17.8253 6.37484H17.821Z" />
<path fill="white" d="M16.2744 1.47901C16.4155 1.58526 16.471 1.75951 16.5822 1.904L16.5693 1.9635C16.377 2.12925 16.2061 1.853 16.1548 1.69151C16.0779 1.52576 15.9967 1.36002 15.8556 1.23677C15.8599 1.20702 15.8684 1.18152 15.8727 1.15177C15.8043 1.07527 15.7146 0.969026 15.8043 0.926527C15.8428 0.875528 15.9069 0.977525 15.9796 1.02427C16.0907 1.16877 16.112 1.35152 16.2787 1.47901H16.2744Z" />
<path fill="white" d="M17.0684 0.743566C17.0684 0.773315 17.0214 0.824314 17.0171 0.849813C16.9274 0.764815 16.8333 0.679817 16.7564 0.539571C16.7308 0.531071 16.6795 0.518321 16.6581 0.484322C16.6325 0.475823 16.6367 0.450323 16.6453 0.420574C16.7308 0.412074 16.7949 0.488572 16.8675 0.539571C16.8932 0.548071 16.9274 0.526821 16.953 0.531071C17.0257 0.57782 17.0641 0.650068 17.0727 0.743566H17.0684Z" />
<path fill="#2E9647" d="M5.1964 6.02193C5.22205 6.04318 5.26051 6.07718 5.27761 6.10268C5.32034 6.13243 5.36308 6.13243 5.41009 6.11543C5.45283 6.11543 5.49129 6.23017 5.5383 6.23442C5.60241 6.26417 5.64087 6.37467 5.70498 6.42992C5.74772 6.45542 5.79045 6.49792 5.83319 6.52342C5.89302 6.59992 5.93149 6.67641 5.99559 6.72741C6.03406 6.77841 6.10244 6.76141 6.14945 6.76141C6.23492 6.79116 6.26911 6.91441 6.32894 6.99091C6.35031 6.99091 6.38878 7.0674 6.38878 7.0929C6.43151 7.1184 6.46998 7.1694 6.53408 7.19915C6.55118 7.22465 6.55118 7.2714 6.56827 7.2969C6.7264 7.55189 6.93582 7.71339 7.0683 7.98538C7.0683 7.98538 7.0854 8.03638 7.0854 8.05763C7.2478 8.21487 7.32045 8.44012 7.46148 8.61862C7.49995 8.69511 7.53414 8.81836 7.5726 8.91611C7.61534 8.96711 7.6538 8.99686 7.69654 9.04785C7.75637 9.14985 7.81193 9.2731 7.82475 9.39635C7.82475 9.44309 7.79056 9.58759 7.70509 9.50684C7.60252 9.4006 7.61107 9.26035 7.5085 9.1796C7.5085 9.1541 7.48285 9.0946 7.46148 9.0691C7.41875 9.01811 7.34609 9.02235 7.329 8.95011C7.33327 8.87786 7.25207 8.81836 7.21361 8.77161C7.11104 8.62286 6.95718 8.56762 6.83325 8.41887C6.81188 8.41887 6.79051 8.41887 6.76487 8.44012C6.7435 8.48687 6.67512 8.55487 6.73495 8.63136C6.82042 8.68236 6.86316 8.78011 6.97001 8.83536C7.03411 8.88636 7.05121 9.03086 7.08967 9.1541C7.13241 9.2051 7.17515 9.25185 7.23925 9.2816C7.30336 9.3326 7.27771 9.4091 7.33755 9.48559C7.33755 9.51109 7.3119 9.53234 7.3119 9.55359C7.35037 9.63009 7.44012 9.61309 7.49995 9.68959C7.54696 9.64709 7.61107 9.68109 7.64953 9.74909C7.57688 9.81709 7.59824 9.86383 7.56833 9.93608C7.49567 10.0508 7.66235 10.1613 7.76919 10.2166C7.83757 10.2208 7.82475 10.3398 7.88886 10.3951C7.92732 10.4716 8.03844 10.4801 8.094 10.5821C8.11109 10.6331 8.06836 10.6501 8.04271 10.6968C8.03844 10.7691 8.12391 10.7988 8.16665 10.8286C8.20939 10.8583 8.22648 10.9051 8.24358 10.9561C8.1752 10.9731 8.04699 10.8838 7.97861 10.8796C7.93587 10.8626 7.85894 10.7691 7.77347 10.7478C7.74355 10.7393 7.72218 10.8116 7.69227 10.8031C7.6538 10.7946 7.61107 10.7861 7.56833 10.7776C7.52132 10.7691 7.4102 10.6458 7.36319 10.6416C7.30763 10.6331 7.23925 10.7308 7.18797 10.7223C6.99137 10.6883 6.98283 10.6756 6.91872 10.6501C6.84607 10.6203 6.77341 10.5863 6.70931 10.5481C6.66657 10.5268 6.67939 10.4673 6.63665 10.4418C6.59819 10.4163 6.50844 10.4163 6.46998 10.3908C6.31185 10.2931 6.16227 10.0763 6.02551 10.0041C5.93576 9.95733 5.86311 9.91058 5.76054 9.86383C5.71353 9.83408 5.67506 9.76609 5.61523 9.74484C5.42719 9.68109 5.27761 9.56634 5.06819 9.50684C4.66646 9.3921 4.33311 9.62159 4.00403 9.79159C3.98694 9.79159 3.95275 9.79159 3.93565 9.80009C3.85873 9.86383 3.77325 9.89783 3.69632 9.94883C3.59375 10.0296 3.45272 10.0508 3.3416 10.1146C3.30741 10.1358 3.30314 10.1996 3.26895 10.2208C3.21767 10.2506 3.11937 10.2591 3.06808 10.2888C3.02107 10.3186 3.0168 10.3738 2.96979 10.4121C2.87577 10.4886 2.78602 10.5481 2.65781 10.6076C2.58515 10.6458 1.98256 10.7478 1.88426 10.7478C1.73041 10.7478 1.61929 10.8753 1.38851 10.8753C1.03806 10.8753 0.68334 10.8668 0.392727 10.6501C0.332894 10.5991 0.320073 10.4503 0.277336 10.4248C0.149124 10.3441 0.161945 10.1741 0.127755 10.0508C0.0850176 10.0253 -0.000457156 10.0168 0.00381658 9.94458C0.0508277 9.58759 0.230325 9.2646 0.448285 9.0181C0.49957 8.92461 0.610687 8.88636 0.623508 8.76736C0.623508 8.76736 0.8201 8.49537 0.939765 8.38487C0.965407 8.33812 0.926943 8.26162 0.952586 8.21913C1.13208 7.87063 1.45689 7.63264 1.72613 7.31815C1.79879 7.25015 1.8458 7.1609 1.96119 7.1439C2.0082 7.1439 2.05094 7.1524 2.07658 7.10565C2.12786 6.99091 2.22189 6.92716 2.29026 6.88041C2.54669 6.70616 2.76038 6.44692 3.05099 6.40017C3.098 6.37892 3.12364 6.33217 3.16638 6.31092C3.21339 6.26842 3.29887 6.31942 3.34588 6.30242C3.56384 6.20468 3.76043 5.99643 3.98266 5.96668C4.02968 5.94543 4.05532 5.89868 4.07669 5.90293C4.27328 5.91993 4.50833 5.74569 4.6921 5.92843C4.85878 5.89443 5.11093 5.92843 5.2135 6.01768L5.1964 6.02193ZM6.70931 8.12563C6.70931 8.10013 6.70931 8.07888 6.70931 8.05338C6.62383 8.00238 6.58537 7.85363 6.47425 7.82388C6.45288 7.82388 6.40587 7.84513 6.40587 7.87063C6.4016 8.01513 6.46143 8.11288 6.52126 8.23612C6.54691 8.14263 6.61101 8.14688 6.65375 8.21913C6.67512 8.19788 6.70076 8.15113 6.70076 8.12563H6.70931Z" />
<path fill="#231F20" d="M27.7925 14.8492L26.7968 15.8819L24.0274 13.196C23.6641 13.8377 23.2282 14.3817 22.7239 14.8322C22.2196 15.2784 21.7153 15.6439 21.2153 15.9244L20.2451 14.8237C20.7922 14.5517 21.258 14.2372 21.6426 13.876C22.0273 13.5147 22.3435 13.1322 22.5914 12.737C22.835 12.3375 23.0145 11.9338 23.1299 11.5173C23.241 11.1008 23.3008 10.6928 23.3008 10.2976V8.39785H24.8308V10.0256C24.8308 10.3443 24.8095 10.646 24.771 10.935C24.7283 11.224 24.677 11.5045 24.6129 11.7765L27.7925 14.8577V14.8492ZM30.9594 19.5156H29.5106V12.2398H26.4933V10.8543H29.5106V7.16113H30.9594V19.5113V19.5156Z" />
<path fill="#231F20" d="M44.0537 14.1182H38.8824V14.7982H41.4467V17.9856H36.4934V18.5976H41.7758V19.9831H34.9933V16.6724H39.9338V16.1284H34.925V14.7982H37.4208V14.1182H32.3564V12.7625H44.0537V14.1182ZM41.3227 9.74936C41.3227 10.1403 41.2373 10.4931 41.0706 10.8161C40.9039 11.1391 40.6774 11.4153 40.3953 11.6491C40.1047 11.8743 39.7586 12.0528 39.3654 12.1803C38.9679 12.3078 38.5405 12.3715 38.0747 12.3715C37.6388 12.3715 37.2285 12.312 36.8396 12.193C36.4507 12.074 36.1088 11.9041 35.8096 11.6788C35.519 11.4536 35.2882 11.1773 35.1216 10.8586C34.9549 10.5356 34.8694 10.1743 34.8694 9.76635C34.8694 9.35836 34.9506 8.98862 35.113 8.66138C35.2754 8.32989 35.5062 8.0494 35.7968 7.8114C36.0789 7.57766 36.4165 7.39491 36.8054 7.26742C37.1943 7.13992 37.6174 7.07617 38.0747 7.07617C38.532 7.07617 38.9423 7.13992 39.3355 7.26742C39.7329 7.39491 40.0748 7.57341 40.3654 7.8114C40.656 8.03665 40.8868 8.31714 41.062 8.64438C41.233 8.97587 41.3227 9.34562 41.3227 9.74936ZM39.8227 9.73661C39.8227 9.31162 39.6517 8.97587 39.3055 8.73363C38.9594 8.48714 38.5491 8.36814 38.079 8.36814C37.6089 8.36814 37.1772 8.48714 36.8439 8.72938C36.5105 8.96738 36.3481 9.30737 36.3481 9.74086C36.3481 10.1743 36.5148 10.4846 36.8439 10.7183C37.1772 10.9521 37.5875 11.0711 38.079 11.0711C38.5705 11.0711 38.9594 10.9648 39.3055 10.7481C39.6517 10.5313 39.8227 10.1956 39.8227 9.74511V9.73661Z" />
<path fill="#231F20" d="M56.3411 15.0063H44.661V13.6378H56.3411V15.0063ZM53.8025 19.9829H52.3409V17.1524H47.1141V15.767H53.8025V19.9829ZM53.7769 12.9323H47.1697V7.58594H53.6914V8.9544H48.6142V9.53664H53.529V10.9221H48.6142V11.5596H53.7726V12.9281L53.7769 12.9323Z" />
<path fill="#231F20" d="M62.8928 13.4763H57.3369V7.83247H58.7814V9.46018H61.4312V7.83247H62.8928V13.4763ZM61.4312 12.1036V10.8286H58.7814V12.1036H61.4312ZM66.9998 19.9744H60.2986V16.566H65.1707V15.8605H60.2302V14.4878H66.6708V17.8962H61.8286V18.6017H66.9998V19.9702V19.9744ZM67.1109 14.0968H65.6792V12.7793H63.333V11.4194H65.6792V10.4419H63.333V9.06919H65.6792V7.15674H67.1109V14.0926V14.0968Z" />
<path fill="#231F20" d="M76.0131 14.8915L75.0173 15.9242L72.2608 13.2255C71.9061 13.8758 71.4744 14.4283 70.9701 14.8745C70.4658 15.3207 69.953 15.6862 69.4358 15.9667L68.4657 14.866C69.0213 14.5685 69.4914 14.237 69.8803 13.8758C70.2649 13.5145 70.5812 13.1363 70.8291 12.7495C71.0641 12.3501 71.2394 11.9506 71.3547 11.5426C71.4701 11.1346 71.5257 10.7308 71.5257 10.3356V8.3934H73.0557V10.0636C73.0557 10.3824 73.0343 10.6798 72.9959 10.9646C72.9531 11.2493 72.9018 11.5213 72.8377 11.7848L76.0174 14.8915H76.0131ZM79.0005 19.5196H77.5388V7.16943H79.0005V19.5196Z" />
</svg>