<svg viewBox="0 0 52 24" fill="none" xmlns="http://www.w3.org/2000/svg">
<path fill="#575756" d="M32.7521 14.5894V17.4617H31.7221V15.4848H26.2808V14.5894H29.0528V13.3812H25.7617V12.4857H33.3635V13.3812H30.0725V14.5894H32.7521ZM32.7521 9.37012V11.8274H31.7221V10.2758H26.3731V9.37012H32.75H32.7521Z" />
<path fill="#575756" d="M37.1432 9.25979L39.4514 15.9653L38.5897 16.3169L37.1432 12.0871L35.7152 16.3823L34.835 16.0307L37.1432 9.25979ZM39.9233 9.21481H40.8774V17.3984H39.9233V13.14H38.8934V12.2159H39.9233V9.21481ZM41.6571 9.20459H42.6481V17.4434H41.6571V9.20459Z" />
<path fill="#575756" d="M44.6954 10.7482V9.88953H46.6323V9.10449H47.7259V9.88953H49.5704V10.7482H47.5597L49.6464 12.8539L48.9795 13.4815L47.1801 11.617L45.4012 13.6307L44.7139 12.9929L46.8088 10.7482H44.6954ZM51.296 15.6894C51.296 15.9654 51.2385 16.2271 51.1236 16.4703C51.0087 16.7136 50.8569 16.9283 50.664 17.1123C50.4732 17.2963 50.2455 17.4434 49.9828 17.5518C49.7202 17.6581 49.4412 17.7133 49.1437 17.7133C48.8462 17.7133 48.5753 17.6581 48.3086 17.5518C48.0419 17.4434 47.8141 17.2983 47.6233 17.1123C47.4304 16.9283 47.2786 16.7136 47.1637 16.4703C47.0488 16.2271 46.9914 15.9674 46.9914 15.6894C46.9914 15.4114 47.0488 15.1517 47.1637 14.9084C47.2786 14.6652 47.4304 14.4505 47.6233 14.2665C47.8141 14.0805 48.0439 13.9353 48.3086 13.827C48.5753 13.7186 48.8523 13.6655 49.1437 13.6655C49.435 13.6655 49.7202 13.7186 49.9828 13.827C50.2455 13.9353 50.4732 14.0805 50.664 14.2665C50.8548 14.4505 51.0087 14.6652 51.1236 14.9084C51.2385 15.1517 51.296 15.4114 51.296 15.6894ZM50.2845 15.6812C50.2845 15.3725 50.1716 15.1088 49.9459 14.8859C49.7202 14.6652 49.4494 14.5548 49.1355 14.5548C48.8215 14.5548 48.561 14.6652 48.3373 14.8859C48.1137 15.1088 48.0029 15.3725 48.0029 15.6812C48.0029 15.9899 48.1137 16.2618 48.3373 16.4806C48.5589 16.6993 48.8256 16.8077 49.1355 16.8077C49.4453 16.8077 49.7202 16.6973 49.9459 16.4806C50.1716 16.2618 50.2845 15.996 50.2845 15.6812ZM50.9697 13.5939V12.0238H49.5232V11.1468H50.9697V9.20671H51.9977V13.5939H50.9697Z" />
<path fill="#003863" d="M15.497 12.5451C13.753 11.3635 11.5207 11.846 10.3491 13.6205C9.37042 15.1026 7.8911 15.2887 7.31866 15.2887C5.4536 15.2887 4.1774 13.9803 3.79987 12.6289C3.79577 12.6146 3.79372 12.6044 3.78961 12.5901C3.78551 12.5737 3.78141 12.5615 3.7773 12.5451C3.62753 11.9809 3.59265 11.711 3.59265 11.112C3.59265 7.87785 6.92266 4.27568 11.7197 4.27568C16.5167 4.27568 19.4426 8.00255 20.1668 10.0735C20.1545 10.0387 20.1422 10.0019 20.1299 9.9631C18.7367 5.91322 14.8815 3 10.343 3C4.63289 3 0 7.61413 0 13.3077C0 18.3961 3.68292 22.7506 8.79182 22.7506C12.8666 22.7506 15.6057 20.4752 16.8614 17.3371C17.5508 15.6219 17.0625 13.6041 15.497 12.5451Z" />
<path fill="#E4032E" d="M20.2325 10.274C19.6293 8.25421 16.7958 4.27588 11.7218 4.27588C6.92475 4.27588 3.59473 7.87805 3.59473 11.1122C3.59473 11.7112 3.62961 11.9811 3.77939 12.5453C3.71783 12.298 3.68295 12.0506 3.68295 11.8094C3.68295 8.44025 7.06837 6.10763 10.5482 6.10763C15.259 6.10763 19.0774 9.91219 19.0774 14.606C19.0774 18.2859 16.9517 21.469 13.8638 22.9982C17.8443 21.5651 20.686 17.7666 20.686 13.3079C20.686 12.2509 20.5444 11.3208 20.2305 10.274H20.2325Z" />
</svg>